<?xml version="1.0" standalone="no"?>
<!DOCTYPE svg PUBLIC "-//W3C//DTD SVG 20010904//EN"
 "http://www.w3.org/TR/2001/REC-SVG-20010904/DTD/svg10.dtd">
<svg version="1.0" xmlns="http://www.w3.org/2000/svg"
 width="650.000000pt" height="650.000000pt" viewBox="0 0 650.000000 650.000000"
 preserveAspectRatio="xMidYMid meet">
<metadata>
Created by potrace 1.11, written by Peter Selinger 2001-2013
</metadata>
<g transform="translate(0.000000,650.000000) scale(0.100000,-0.100000)"
fill="#000000" stroke="none">
<path d="M2819 6326 c-2 -2 -29 -7 -59 -11 -78 -10 -202 -51 -294 -97 -358
-179 -588 -546 -588 -938 0 -296 102 -541 312 -750 182 -183 413 -290 654
-305 206 -13 255 -17 301 -26 28 -6 61 -12 74 -15 48 -10 148 -48 223 -84 121
-59 215 -127 314 -225 126 -125 198 -238 282 -437 l11 -27 58 57 c109 109 220
169 388 209 11 3 64 6 117 8 117 4 232 -19 333 -64 37 -17 71 -31 75 -31 10 0
50 196 65 323 13 103 14 428 2 497 -3 14 -7 45 -11 70 -39 268 -141 553 -280
785 -17 28 -34 52 -38 53 -4 2 -8 8 -8 14 0 10 -90 136 -147 208 -33 40 -221
231 -276 278 -102 89 -299 218 -442 289 -184 92 -452 175 -640 199 -22 3 -51
8 -65 10 -31 7 -356 15 -361 10z"/>
<path d="M1915 4498 c-106 -70 -286 -251 -356 -358 -188 -286 -247 -554 -173
-777 61 -185 226 -344 417 -405 144 -46 337 -26 481 49 158 83 295 271 330
454 14 78 105 227 187 307 143 140 319 214 511 216 53 1 94 4 90 8 -14 13
-140 59 -212 78 -90 22 -139 28 -290 35 -63 3 -126 7 -140 10 -52 10 -85 16
-95 17 -5 0 -54 16 -108 35 -120 41 -227 97 -325 170 -73 54 -212 188 -212
205 0 18 -29 6 -105 -44z"/>
<path d="M3193 3765 c-241 -55 -408 -270 -406 -520 1 -148 52 -266 158 -370
295 -289 793 -135 879 270 67 318 -169 618 -494 629 -47 2 -109 -2 -137 -9z
m127 -44 c20 -17 33 -39 37 -63 5 -32 1 -41 -25 -68 -48 -47 -116 -39 -146 18
-15 29 -11 77 8 101 12 16 60 38 81 38 8 0 28 -12 45 -26z m277 -93 c64 -32
91 -125 54 -186 -61 -97 -188 -93 -238 7 -34 68 -17 131 48 173 43 28 87 30
136 6z"/>
<path d="M4489 3555 c-170 -42 -330 -165 -412 -318 -15 -29 -41 -97 -58 -152
-64 -206 -157 -337 -312 -442 -48 -32 -144 -81 -177 -89 -8 -2 -42 -11 -75
-19 -33 -9 -102 -16 -154 -17 l-93 -1 63 -30 c88 -41 230 -75 346 -82 168 -10
237 -15 263 -20 14 -3 40 -8 58 -11 19 -3 53 -12 75 -21 23 -8 50 -16 59 -18
29 -6 139 -57 203 -94 91 -52 215 -152 280 -225 l58 -66 46 25 c146 80 351
288 443 449 23 40 100 198 103 211 1 6 5 17 8 25 7 16 34 112 43 151 22 91 7
261 -32 360 -72 182 -253 338 -445 384 -78 18 -214 18 -290 0z"/>
<path d="M2510 3033 c-214 -217 -555 -278 -834 -150 l-75 35 -10 -31 c-12 -37
-29 -111 -37 -163 -3 -20 -8 -46 -10 -58 -19 -94 -25 -402 -11 -555 21 -234
103 -505 223 -744 213 -424 556 -761 989 -972 315 -153 600 -220 930 -218 149
1 191 7 297 37 137 40 255 100 359 183 156 124 248 243 326 419 57 129 83 250
85 400 6 413 -236 797 -612 971 -138 64 -264 90 -463 98 -62 3 -123 7 -137 10
-13 2 -42 7 -65 11 -70 10 -227 65 -310 108 -188 98 -345 242 -459 421 -37 57
-103 193 -112 230 -3 14 -9 25 -13 24 -3 0 -31 -26 -61 -56z"/>
</g>
</svg>
