<?xml version="1.0" encoding="utf-8"?>
<!-- Generator: Adobe Illustrator 23.0.5, SVG Export Plug-In . SVG Version: 6.00 Build 0)  -->
<svg version="1.1" id="Layer_1" xmlns="http://www.w3.org/2000/svg" xmlns:xlink="http://www.w3.org/1999/xlink" x="0px" y="0px"
	 viewBox="0 0 101.5 155.2" style="enable-background:new 0 0 101.5 155.2;" xml:space="preserve">
<style type="text/css">
	.st0{fill:url(#SVGID_1_);}
	.st1{fill:url(#SVGID_2_);}
	.st2{fill:url(#SVGID_3_);}
	.st3{fill:url(#SVGID_4_);}
	.st4{fill:#FFFFFF;}
	.st5{fill:#414042;}
</style>
<title>Artboard 3</title>
<linearGradient id="SVGID_1_" gradientUnits="userSpaceOnUse" x1="69.1982" y1="5.3441" x2="20.5382" y2="75.6341" gradientTransform="matrix(1 0 0 -1 0 155.431)">
	<stop  offset="0" style="stop-color:#4DBEEE"/>
	<stop  offset="1" style="stop-color:#2C479E"/>
</linearGradient>
<path class="st0" d="M59.4,99.5c-6.7,0-13.2-2.5-18.1-7.1c-1.2-0.7-2.2-1.5-3.2-2.5c-3.1-3.1-4.9-7.3-5-11.7
	c-4.4,8-14.5,11-22.5,6.5c-0.7-0.4-1.4-0.8-2.1-1.4c-8.9,28.2,6.7,58.2,34.8,67.1c5,1.6,10.2,2.4,15.4,2.5h1.4
	c14.8-0.2,26.6-12.3,26.4-27.1S74.2,99.3,59.4,99.5L59.4,99.5z"/>
<linearGradient id="SVGID_2_" gradientUnits="userSpaceOnUse" x1="10.8935" y1="70.0523" x2="44.4735" y2="109.6423" gradientTransform="matrix(1 0 0 -1 0 155.431)">
	<stop  offset="0" style="stop-color:#4DBEEE"/>
	<stop  offset="1" style="stop-color:#2C479E"/>
</linearGradient>
<path class="st1" d="M38.1,65.4c5.6-5.6,14.4-6.7,21.2-2.5c-4.9-4.5-11.4-7.1-18.1-7.1c-8.7,0-16.8-4.2-21.8-11.3
	C11,48.9,4.9,56.6,2.5,65.8c0,0.1-0.1,0.3-0.1,0.4s-0.1,0.3-0.1,0.4c-1.9,9,3.8,17.8,12.7,19.7c7.2,1.5,14.5-1.8,18-8.2
	C32.9,73.4,34.8,68.8,38.1,65.4z"/>
<linearGradient id="SVGID_3_" gradientUnits="userSpaceOnUse" x1="37.3492" y1="160.2897" x2="66.7591" y2="83.0998" gradientTransform="matrix(1 0 0 -1 0 155.431)">
	<stop  offset="0" style="stop-color:#4DBEEE"/>
	<stop  offset="1" style="stop-color:#2C479E"/>
</linearGradient>
<path class="st2" d="M41.9,2.4h-1.4C25.8,2.6,14,14.7,14.2,29.4S26.5,56,41.3,55.8c6.7,0,13.2,2.5,18.1,7.1c1.2,0.7,2.2,1.5,3.2,2.5
	c3.1,3.1,4.9,7.3,5.1,11.7c4.4-8,14.5-11,22.5-6.5c0.7,0.4,1.4,0.8,2,1.3c8.9-28.1-6.7-58.2-34.8-67.1C52.4,3.3,47.2,2.4,41.9,2.4
	L41.9,2.4z"/>
<linearGradient id="SVGID_4_" gradientUnits="userSpaceOnUse" x1="85.3589" y1="89.6142" x2="57.7689" y2="42.8342" gradientTransform="matrix(1 0 0 -1 0 155.431)">
	<stop  offset="0" style="stop-color:#4DBEEE"/>
	<stop  offset="1" style="stop-color:#2C479E"/>
</linearGradient>
<path class="st3" d="M86.1,69c-7.3-1.8-14.8,1.6-18.5,8.1c0.3,9.5-7.2,17.5-16.7,17.8c-3.4,0.1-6.7-0.8-9.6-2.5
	c4.9,4.6,11.4,7.1,18.1,7.1c8.7,0,16.8,4.2,21.8,11.3c8.4-4.3,14.6-12.1,16.9-21.2c0-0.1,0.1-0.3,0.1-0.4s0.1-0.3,0.1-0.4
	C100.3,79.9,94.8,71.2,86.1,69z"/>
<circle class="st4" cx="50.3" cy="77.6" r="17.3"/>
<circle class="st5" cx="50.3" cy="77.6" r="12.6"/>
<circle class="st4" cx="55.1" cy="71.2" r="3.3"/>
<circle class="st4" cx="48.8" cy="67.7" r="2.3"/>
</svg>
